<svg xmlns="http://www.w3.org/2000/svg" viewBox="0 0 32 32"><rect width="32" height="32" rx="8" fill="#e07a3f"/><polygon fill="#ffffff" points="16.00,12.27 16.00,12.26 16.00,12.26 16.00,12.24 16.00,12.22 16.00,12.19 16.01,12.16 16.01,12.13 16.02,12.08 16.03,12.03 16.04,11.98 16.05,11.92 16.06,11.86 16.08,11.79 16.10,11.72 16.12,11.64 16.14,11.56 16.17,11.48 16.20,11.39 16.24,11.30 16.27,11.20 16.32,11.11 16.36,11.01 16.41,10.91 16.46,10.80 16.52,10.70 16.58,10.59 16.65,10.48 16.72,10.37 16.79,10.26 16.87,10.16 16.95,10.05 17.04,9.94 17.13,9.83 17.22,9.73 17.32,9.62 17.43,9.52 17.54,9.42 17.65,9.32 17.76,9.23 17.88,9.14 18.01,9.05 18.14,8.96 18.27,8.88 18.40,8.80 18.54,8.73 18.68,8.66 18.83,8.60 18.98,8.54 19.13,8.48 19.28,8.44 19.44,8.39 19.59,8.35 19.75,8.32 19.92,8.30 20.08,8.28 20.25,8.26 20.41,8.25 20.58,8.25 20.75,8.26 20.91,8.27 21.08,8.28 21.25,8.31 21.42,8.34 21.59,8.37 21.75,8.41 21.92,8.46 22.08,8.52 22.24,8.58 22.41,8.64 22.56,8.72 22.72,8.79 22.87,8.88 23.03,8.97 23.17,9.06 23.32,9.16 23.46,9.26 23.60,9.37 23.73,9.49 23.86,9.61 23.98,9.73 24.10,9.86 24.22,9.99 24.33,10.13 24.43,10.27 24.53,10.41 24.63,10.56 24.71,10.71 24.80,10.86 24.87,11.01 24.94,11.17 25.01,11.33 25.06,11.50 25.11,11.66 25.16,11.83 25.19,11.99 25.23,12.16 25.25,12.33 25.27,12.50 25.28,12.67 25.28,12.85 25.28,13.02 25.27,13.19 25.25,13.37 25.23,13.54 25.19,13.72 25.16,13.89 25.11,14.07 25.06,14.24 25.01,14.41 24.94,14.58 24.87,14.76 24.80,14.93 24.71,15.10 24.63,15.27 24.53,15.44 24.43,15.61 24.33,15.77 24.22,15.94 24.10,16.11 23.98,16.27 23.86,16.43 23.73,16.59 23.60,16.76 23.46,16.92 23.32,17.07 23.17,17.23 23.03,17.39 22.87,17.54 22.72,17.70 22.56,17.85 22.41,18.01 22.24,18.16 22.08,18.31 21.92,18.46 21.75,18.61 21.59,18.75 21.42,18.90 21.25,19.05 21.08,19.19 20.91,19.34 20.75,19.48 20.58,19.62 20.41,19.77 20.25,19.91 20.08,20.05 19.92,20.19 19.75,20.33 19.59,20.47 19.44,20.60 19.28,20.74 19.13,20.88 18.98,21.01 18.83,21.14 18.68,21.28 18.54,21.41 18.40,21.54 18.27,21.67 18.14,21.80 18.01,21.93 17.88,22.05 17.76,22.18 17.65,22.30 17.54,22.42 17.43,22.54 17.32,22.66 17.22,22.78 17.13,22.90 17.04,23.01 16.95,23.12 16.87,23.23 16.79,23.34 16.72,23.44 16.65,23.54 16.58,23.64 16.52,23.74 16.46,23.83 16.41,23.93 16.36,24.01 16.32,24.10 16.27,24.18 16.24,24.26 16.20,24.34 16.17,24.41 16.14,24.48 16.12,24.54 16.10,24.60 16.08,24.66 16.06,24.71 16.05,24.76 16.04,24.81 16.03,24.85 16.02,24.89 16.01,24.92 16.01,24.95 16.00,24.97 16.00,24.99 16.00,25.01 16.00,25.02 16.00,25.03 16.00,25.03 16.00,25.03 16.00,25.02 16.00,25.01 16.00,24.99 16.00,24.97 15.99,24.95 15.99,24.92 15.98,24.89 15.97,24.85 15.96,24.81 15.95,24.76 15.94,24.71 15.92,24.66 15.90,24.60 15.88,24.54 15.86,24.48 15.83,24.41 15.80,24.34 15.76,24.26 15.73,24.18 15.68,24.10 15.64,24.01 15.59,23.93 15.54,23.83 15.48,23.74 15.42,23.64 15.35,23.54 15.28,23.44 15.21,23.34 15.13,23.23 15.05,23.12 14.96,23.01 14.87,22.90 14.78,22.78 14.68,22.66 14.57,22.54 14.46,22.42 14.35,22.30 14.24,22.18 14.12,22.05 13.99,21.93 13.86,21.80 13.73,21.67 13.60,21.54 13.46,21.41 13.32,21.28 13.17,21.14 13.02,21.01 12.87,20.88 12.72,20.74 12.56,20.60 12.41,20.47 12.25,20.33 12.08,20.19 11.92,20.05 11.75,19.91 11.59,19.77 11.42,19.62 11.25,19.48 11.09,19.34 10.92,19.19 10.75,19.05 10.58,18.90 10.41,18.75 10.25,18.61 10.08,18.46 9.92,18.31 9.76,18.16 9.59,18.01 9.44,17.85 9.28,17.70 9.13,17.54 8.97,17.39 8.83,17.23 8.68,17.07 8.54,16.92 8.40,16.76 8.27,16.59 8.14,16.43 8.02,16.27 7.90,16.11 7.78,15.94 7.67,15.77 7.57,15.61 7.47,15.44 7.37,15.27 7.29,15.10 7.20,14.93 7.13,14.76 7.06,14.58 6.99,14.41 6.94,14.24 6.89,14.07 6.84,13.89 6.81,13.72 6.77,13.54 6.75,13.37 6.73,13.19 6.72,13.02 6.72,12.85 6.72,12.67 6.73,12.50 6.75,12.33 6.77,12.16 6.81,11.99 6.84,11.83 6.89,11.66 6.94,11.50 6.99,11.33 7.06,11.17 7.13,11.01 7.20,10.86 7.29,10.71 7.37,10.56 7.47,10.41 7.57,10.27 7.67,10.13 7.78,9.99 7.90,9.86 8.02,9.73 8.14,9.61 8.27,9.49 8.40,9.37 8.54,9.26 8.68,9.16 8.83,9.06 8.97,8.97 9.13,8.88 9.28,8.79 9.44,8.72 9.59,8.64 9.76,8.58 9.92,8.52 10.08,8.46 10.25,8.41 10.41,8.37 10.58,8.34 10.75,8.31 10.92,8.28 11.09,8.27 11.25,8.26 11.42,8.25 11.59,8.25 11.75,8.26 11.92,8.28 12.08,8.30 12.25,8.32 12.41,8.35 12.56,8.39 12.72,8.44 12.87,8.48 13.02,8.54 13.17,8.60 13.32,8.66 13.46,8.73 13.60,8.80 13.73,8.88 13.86,8.96 13.99,9.05 14.12,9.14 14.24,9.23 14.35,9.32 14.46,9.42 14.57,9.52 14.68,9.62 14.78,9.73 14.87,9.83 14.96,9.94 15.05,10.05 15.13,10.16 15.21,10.26 15.28,10.37 15.35,10.48 15.42,10.59 15.48,10.70 15.54,10.80 15.59,10.91 15.64,11.01 15.68,11.11 15.73,11.20 15.76,11.30 15.80,11.39 15.83,11.48 15.86,11.56 15.88,11.64 15.90,11.72 15.92,11.79 15.94,11.86 15.95,11.92 15.96,11.98 15.97,12.03 15.98,12.08 15.99,12.13 15.99,12.16 16.00,12.19 16.00,12.22 16.00,12.24 16.00,12.26 16.00,12.26"/></svg>
